<?xml version="1.0" encoding="utf-8" ?>
<svg baseProfile="tiny" height="2048" version="1.2" width="2048" xmlns="http://www.w3.org/2000/svg" xmlns:ev="http://www.w3.org/2001/xml-events" xmlns:xlink="http://www.w3.org/1999/xlink"><defs /><path d="M 1392,1329 L 1391,1330 L 1390,1330 L 1389,1331 L 1389,1365 L 1390,1366 L 1390,1367 L 1391,1367 L 1392,1368 L 1407,1368 L 1408,1367 L 1412,1367 L 1413,1368 L 1414,1368 L 1415,1367 L 1417,1367 L 1417,1366 L 1418,1365 L 1418,1363 L 1416,1361 L 1398,1361 L 1397,1360 L 1397,1331 L 1396,1330 L 1395,1330 L 1394,1329 Z" fill="black" stroke="none" /><path d="M 1358,1329 L 1357,1330 L 1356,1330 L 1356,1331 L 1355,1332 L 1355,1365 L 1356,1366 L 1356,1367 L 1358,1367 L 1359,1368 L 1360,1368 L 1361,1367 L 1363,1367 L 1363,1365 L 1364,1364 L 1364,1363 L 1363,1362 L 1363,1358 L 1364,1357 L 1364,1356 L 1363,1355 L 1363,1347 L 1364,1346 L 1364,1345 L 1363,1344 L 1363,1331 L 1361,1329 Z" fill="black" stroke="none" /><path d="M 1312,1329 L 1311,1330 L 1310,1330 L 1309,1331 L 1307,1331 L 1305,1333 L 1304,1333 L 1299,1338 L 1299,1339 L 1298,1340 L 1298,1341 L 1297,1342 L 1297,1347 L 1296,1348 L 1296,1350 L 1297,1351 L 1297,1355 L 1298,1356 L 1298,1357 L 1300,1359 L 1300,1360 L 1304,1364 L 1305,1364 L 1307,1366 L 1309,1366 L 1310,1367 L 1312,1367 L 1313,1368 L 1323,1368 L 1324,1367 L 1325,1367 L 1326,1366 L 1328,1366 L 1330,1364 L 1331,1364 L 1332,1363 L 1332,1362 L 1333,1361 L 1333,1360 L 1331,1358 L 1330,1358 L 1329,1357 L 1328,1357 L 1326,1359 L 1325,1359 L 1324,1360 L 1323,1360 L 1322,1361 L 1313,1361 L 1312,1360 L 1311,1360 L 1305,1354 L 1305,1351 L 1304,1350 L 1304,1347 L 1305,1346 L 1305,1344 L 1306,1343 L 1306,1341 L 1309,1338 L 1310,1338 L 1311,1337 L 1312,1337 L 1313,1336 L 1322,1336 L 1323,1337 L 1324,1337 L 1325,1338 L 1326,1338 L 1328,1340 L 1329,1340 L 1332,1337 L 1332,1334 L 1331,1333 L 1330,1333 L 1328,1331 L 1327,1331 L 1326,1330 L 1324,1330 L 1323,1329 Z" fill="black" stroke="none" /><path d="M 1257,1329 L 1256,1330 L 1255,1330 L 1254,1331 L 1254,1332 L 1253,1333 L 1253,1335 L 1251,1337 L 1251,1339 L 1250,1340 L 1250,1341 L 1249,1342 L 1249,1343 L 1248,1344 L 1248,1345 L 1247,1346 L 1247,1347 L 1246,1348 L 1246,1349 L 1245,1350 L 1245,1353 L 1243,1355 L 1243,1357 L 1241,1359 L 1241,1361 L 1239,1363 L 1239,1367 L 1240,1368 L 1244,1368 L 1245,1367 L 1246,1367 L 1246,1366 L 1247,1365 L 1247,1364 L 1248,1363 L 1248,1362 L 1251,1359 L 1263,1359 L 1264,1360 L 1265,1359 L 1267,1359 L 1270,1362 L 1270,1363 L 1271,1364 L 1271,1365 L 1272,1366 L 1272,1367 L 1273,1367 L 1274,1368 L 1276,1368 L 1277,1367 L 1279,1367 L 1280,1366 L 1280,1365 L 1279,1364 L 1279,1363 L 1278,1362 L 1278,1361 L 1277,1360 L 1277,1358 L 1276,1357 L 1276,1356 L 1275,1355 L 1275,1354 L 1274,1353 L 1274,1352 L 1273,1351 L 1273,1350 L 1272,1349 L 1272,1348 L 1271,1347 L 1271,1346 L 1270,1345 L 1270,1343 L 1268,1341 L 1268,1339 L 1267,1338 L 1267,1337 L 1266,1336 L 1266,1334 L 1265,1333 L 1265,1332 L 1263,1330 L 1262,1330 L 1261,1329 Z" fill="black" stroke="none" /><path d="M 1198,1329 L 1197,1330 L 1196,1330 L 1195,1331 L 1195,1366 L 1196,1367 L 1198,1367 L 1199,1368 L 1201,1368 L 1203,1366 L 1203,1355 L 1204,1354 L 1209,1354 L 1210,1353 L 1211,1353 L 1212,1354 L 1213,1353 L 1216,1353 L 1217,1354 L 1220,1354 L 1221,1353 L 1222,1353 L 1222,1351 L 1223,1350 L 1223,1349 L 1221,1347 L 1204,1347 L 1203,1346 L 1203,1337 L 1204,1336 L 1223,1336 L 1224,1335 L 1224,1330 L 1223,1330 L 1222,1329 Z" fill="black" stroke="none" /><path d="M 1118,1329 L 1117,1330 L 1116,1330 L 1115,1331 L 1114,1331 L 1113,1332 L 1112,1332 L 1109,1335 L 1109,1337 L 1108,1338 L 1108,1343 L 1109,1344 L 1109,1345 L 1113,1349 L 1114,1349 L 1115,1350 L 1117,1350 L 1118,1351 L 1119,1351 L 1120,1352 L 1125,1352 L 1126,1353 L 1128,1353 L 1131,1356 L 1131,1358 L 1128,1361 L 1118,1361 L 1117,1360 L 1116,1360 L 1115,1359 L 1113,1359 L 1111,1357 L 1110,1357 L 1109,1358 L 1108,1358 L 1108,1359 L 1107,1360 L 1107,1363 L 1108,1364 L 1109,1364 L 1110,1365 L 1111,1365 L 1112,1366 L 1114,1366 L 1115,1367 L 1118,1367 L 1119,1368 L 1129,1368 L 1130,1367 L 1131,1367 L 1132,1366 L 1133,1366 L 1135,1364 L 1136,1364 L 1137,1363 L 1137,1362 L 1138,1361 L 1138,1360 L 1139,1359 L 1139,1354 L 1138,1353 L 1138,1352 L 1137,1351 L 1137,1350 L 1136,1349 L 1135,1349 L 1134,1348 L 1133,1348 L 1132,1347 L 1130,1347 L 1129,1346 L 1128,1346 L 1127,1345 L 1122,1345 L 1121,1344 L 1120,1344 L 1119,1343 L 1118,1343 L 1116,1341 L 1116,1339 L 1119,1336 L 1130,1336 L 1132,1338 L 1135,1338 L 1138,1335 L 1138,1334 L 1135,1331 L 1133,1331 L 1132,1330 L 1131,1330 L 1130,1329 Z" fill="black" stroke="none" /><path d="M 1060,1329 L 1059,1330 L 1058,1330 L 1057,1331 L 1055,1331 L 1052,1334 L 1051,1334 L 1049,1336 L 1049,1337 L 1046,1340 L 1046,1341 L 1045,1342 L 1045,1354 L 1047,1356 L 1047,1358 L 1054,1365 L 1055,1365 L 1056,1366 L 1057,1366 L 1058,1367 L 1060,1367 L 1061,1368 L 1071,1368 L 1072,1367 L 1074,1367 L 1075,1366 L 1076,1366 L 1077,1365 L 1078,1365 L 1080,1363 L 1081,1363 L 1083,1361 L 1083,1360 L 1085,1358 L 1085,1357 L 1086,1356 L 1086,1354 L 1087,1353 L 1087,1344 L 1086,1343 L 1086,1341 L 1084,1339 L 1084,1338 L 1083,1337 L 1083,1336 L 1080,1333 L 1079,1333 L 1078,1332 L 1077,1332 L 1076,1331 L 1075,1331 L 1074,1330 L 1072,1330 L 1071,1329 Z" fill="black" stroke="none" /><path d="M 982,1329 L 981,1330 L 980,1330 L 979,1331 L 979,1366 L 980,1367 L 985,1367 L 986,1366 L 986,1346 L 987,1345 L 988,1346 L 988,1347 L 989,1348 L 989,1349 L 990,1350 L 990,1351 L 992,1353 L 992,1354 L 994,1356 L 994,1357 L 995,1358 L 995,1359 L 999,1363 L 1002,1363 L 1004,1361 L 1004,1360 L 1006,1358 L 1006,1357 L 1008,1355 L 1008,1354 L 1009,1353 L 1009,1352 L 1010,1351 L 1010,1350 L 1012,1348 L 1012,1347 L 1014,1345 L 1015,1346 L 1015,1350 L 1014,1351 L 1014,1366 L 1015,1367 L 1021,1367 L 1022,1366 L 1022,1331 L 1020,1329 L 1017,1329 L 1016,1330 L 1015,1330 L 1015,1331 L 1013,1333 L 1013,1334 L 1011,1336 L 1011,1337 L 1009,1339 L 1009,1341 L 1007,1343 L 1007,1344 L 1005,1346 L 1005,1347 L 1004,1348 L 1004,1349 L 1003,1350 L 1003,1351 L 1001,1353 L 1000,1353 L 998,1351 L 998,1350 L 997,1349 L 997,1348 L 994,1345 L 994,1343 L 992,1341 L 992,1340 L 991,1339 L 991,1338 L 989,1336 L 989,1335 L 988,1334 L 988,1333 L 984,1329 Z" fill="black" stroke="none" /><path d="M 927,1329 L 925,1331 L 925,1366 L 927,1368 L 952,1368 L 953,1367 L 954,1367 L 955,1366 L 955,1362 L 954,1362 L 953,1361 L 934,1361 L 933,1360 L 933,1353 L 935,1351 L 936,1351 L 937,1352 L 938,1351 L 951,1351 L 952,1350 L 952,1346 L 951,1345 L 934,1345 L 933,1344 L 933,1337 L 934,1336 L 953,1336 L 954,1335 L 954,1330 L 953,1330 L 952,1329 Z" fill="black" stroke="none" /><path d="M 880,1329 L 879,1330 L 878,1330 L 877,1331 L 875,1331 L 872,1334 L 871,1334 L 869,1336 L 869,1337 L 867,1339 L 867,1341 L 866,1342 L 866,1343 L 865,1344 L 865,1353 L 866,1354 L 866,1355 L 867,1356 L 867,1357 L 869,1359 L 869,1360 L 874,1365 L 875,1365 L 876,1366 L 878,1366 L 879,1367 L 881,1367 L 882,1368 L 891,1368 L 892,1367 L 894,1367 L 895,1366 L 897,1366 L 899,1364 L 900,1364 L 901,1363 L 901,1362 L 902,1361 L 899,1358 L 896,1358 L 895,1359 L 894,1359 L 893,1360 L 892,1360 L 891,1361 L 883,1361 L 882,1360 L 881,1360 L 880,1359 L 879,1359 L 878,1358 L 877,1358 L 875,1356 L 875,1355 L 874,1354 L 874,1351 L 873,1350 L 873,1345 L 874,1344 L 874,1342 L 878,1338 L 879,1338 L 881,1336 L 891,1336 L 893,1338 L 894,1338 L 895,1339 L 896,1339 L 897,1340 L 898,1339 L 899,1339 L 901,1337 L 901,1334 L 900,1333 L 899,1333 L 897,1331 L 895,1331 L 894,1330 L 892,1330 L 891,1329 Z" fill="black" stroke="none" /><path d="M 825,1329 L 822,1332 L 822,1333 L 821,1334 L 821,1336 L 820,1337 L 820,1338 L 819,1339 L 819,1340 L 818,1341 L 818,1342 L 817,1343 L 817,1344 L 816,1345 L 816,1346 L 815,1347 L 815,1349 L 814,1350 L 814,1351 L 813,1352 L 813,1353 L 812,1354 L 812,1355 L 811,1356 L 811,1358 L 810,1359 L 810,1360 L 809,1361 L 809,1362 L 807,1364 L 807,1366 L 808,1367 L 809,1367 L 810,1368 L 812,1368 L 813,1367 L 814,1367 L 816,1365 L 816,1362 L 819,1359 L 835,1359 L 836,1360 L 837,1360 L 839,1362 L 839,1365 L 841,1367 L 842,1367 L 843,1368 L 846,1368 L 847,1367 L 848,1367 L 848,1364 L 846,1362 L 846,1360 L 845,1359 L 845,1358 L 844,1357 L 844,1355 L 842,1353 L 842,1351 L 841,1350 L 841,1349 L 840,1348 L 840,1347 L 839,1346 L 839,1345 L 838,1344 L 838,1342 L 836,1340 L 836,1339 L 835,1338 L 835,1337 L 834,1336 L 834,1334 L 833,1333 L 833,1332 L 830,1329 Z" fill="black" stroke="none" /><path d="M 753,1329 L 752,1330 L 751,1330 L 751,1332 L 750,1333 L 751,1334 L 751,1345 L 750,1346 L 750,1350 L 751,1351 L 751,1366 L 752,1367 L 754,1367 L 755,1368 L 756,1367 L 758,1367 L 759,1366 L 759,1353 L 760,1352 L 778,1352 L 779,1353 L 779,1366 L 780,1367 L 786,1367 L 786,1344 L 787,1343 L 787,1340 L 786,1339 L 786,1335 L 787,1334 L 787,1333 L 786,1332 L 786,1330 L 785,1330 L 784,1329 L 781,1329 L 780,1330 L 779,1330 L 779,1344 L 778,1345 L 760,1345 L 759,1344 L 759,1331 L 758,1330 L 757,1330 L 756,1329 Z" fill="black" stroke="none" /><path d="M 667,1329 L 666,1330 L 665,1330 L 664,1331 L 662,1331 L 660,1333 L 659,1333 L 654,1338 L 654,1339 L 653,1340 L 653,1342 L 652,1343 L 652,1345 L 651,1346 L 651,1351 L 652,1352 L 652,1354 L 653,1355 L 653,1357 L 655,1359 L 655,1360 L 658,1363 L 659,1363 L 661,1365 L 662,1365 L 663,1366 L 664,1366 L 665,1367 L 667,1367 L 668,1368 L 678,1368 L 679,1367 L 680,1367 L 681,1366 L 683,1366 L 684,1365 L 685,1365 L 691,1359 L 691,1358 L 692,1357 L 692,1356 L 693,1355 L 693,1353 L 694,1352 L 694,1345 L 693,1344 L 693,1342 L 692,1341 L 692,1340 L 691,1339 L 691,1338 L 690,1337 L 690,1336 L 689,1336 L 688,1335 L 688,1334 L 687,1334 L 685,1332 L 684,1332 L 683,1331 L 682,1331 L 681,1330 L 680,1330 L 679,1329 Z" fill="black" stroke="none" /><path d="M 611,1329 L 610,1330 L 609,1330 L 608,1331 L 608,1365 L 610,1367 L 611,1367 L 612,1368 L 626,1368 L 627,1367 L 631,1367 L 632,1368 L 634,1368 L 635,1367 L 636,1367 L 636,1362 L 635,1361 L 617,1361 L 616,1360 L 616,1331 L 614,1329 Z" fill="black" stroke="none" /><path d="M 1262,1316 L 1261,1317 L 1260,1317 L 1257,1320 L 1257,1321 L 1255,1323 L 1255,1325 L 1256,1326 L 1260,1326 L 1262,1324 L 1262,1323 L 1266,1319 L 1266,1317 L 1265,1317 L 1264,1316 Z" fill="black" stroke="none" /><path d="M 515,1204 L 514,1205 L 510,1205 L 509,1206 L 508,1206 L 507,1207 L 506,1207 L 505,1208 L 504,1208 L 499,1213 L 499,1214 L 497,1216 L 497,1219 L 496,1220 L 496,1230 L 497,1231 L 497,1233 L 498,1234 L 498,1235 L 501,1238 L 501,1239 L 502,1240 L 503,1240 L 506,1243 L 507,1243 L 508,1244 L 511,1244 L 512,1245 L 520,1245 L 521,1244 L 524,1244 L 525,1243 L 526,1243 L 528,1241 L 529,1241 L 532,1238 L 532,1237 L 534,1235 L 534,1234 L 535,1233 L 535,1232 L 536,1231 L 536,1225 L 537,1224 L 537,1223 L 536,1222 L 536,1218 L 535,1217 L 535,1216 L 533,1214 L 533,1213 L 527,1207 L 526,1207 L 525,1206 L 524,1206 L 523,1205 L 517,1205 L 516,1204 Z" fill="black" stroke="none" /><path d="M 332,1201 L 331,1202 L 285,1202 L 284,1203 L 282,1203 L 281,1204 L 280,1204 L 278,1206 L 277,1206 L 274,1209 L 274,1210 L 272,1212 L 272,1213 L 271,1214 L 271,1215 L 270,1216 L 270,1217 L 269,1218 L 269,1230 L 270,1231 L 270,1232 L 271,1233 L 271,1235 L 273,1237 L 273,1238 L 279,1244 L 281,1244 L 283,1246 L 286,1246 L 287,1247 L 404,1247 L 405,1246 L 423,1246 L 424,1247 L 436,1247 L 437,1246 L 442,1246 L 443,1245 L 444,1245 L 446,1243 L 447,1243 L 453,1237 L 453,1236 L 454,1235 L 454,1234 L 455,1233 L 455,1232 L 456,1231 L 456,1224 L 457,1223 L 456,1222 L 456,1217 L 455,1216 L 455,1215 L 454,1214 L 454,1213 L 451,1210 L 451,1209 L 449,1207 L 448,1207 L 445,1204 L 444,1204 L 443,1203 L 441,1203 L 440,1202 L 436,1202 L 435,1201 Z" fill="black" stroke="none" /><path d="M 1370,1197 L 1369,1198 L 1365,1198 L 1364,1199 L 1361,1199 L 1359,1201 L 1357,1201 L 1354,1204 L 1353,1204 L 1351,1206 L 1351,1207 L 1348,1210 L 1348,1211 L 1347,1212 L 1347,1213 L 1346,1214 L 1346,1215 L 1345,1216 L 1345,1230 L 1346,1231 L 1346,1233 L 1347,1234 L 1347,1235 L 1348,1236 L 1348,1237 L 1350,1239 L 1350,1240 L 1354,1244 L 1355,1244 L 1358,1247 L 1359,1247 L 1360,1248 L 1361,1248 L 1362,1249 L 1363,1249 L 1364,1250 L 1378,1250 L 1379,1249 L 1380,1249 L 1381,1248 L 1383,1248 L 1385,1246 L 1386,1246 L 1388,1244 L 1389,1244 L 1391,1242 L 1391,1241 L 1394,1238 L 1394,1237 L 1396,1235 L 1396,1233 L 1397,1232 L 1397,1229 L 1398,1228 L 1398,1219 L 1397,1218 L 1397,1216 L 1396,1215 L 1396,1214 L 1395,1213 L 1395,1212 L 1394,1211 L 1394,1210 L 1392,1208 L 1392,1207 L 1389,1204 L 1388,1204 L 1386,1202 L 1385,1202 L 1383,1200 L 1382,1200 L 1381,1199 L 1378,1199 L 1377,1198 L 1373,1198 L 1372,1197 Z" fill="black" stroke="none" /><path d="M 1029,1194 L 1028,1195 L 1026,1195 L 1024,1197 L 1023,1197 L 1021,1199 L 1020,1199 L 1018,1201 L 1017,1201 L 1012,1206 L 1011,1206 L 1007,1210 L 1006,1210 L 1001,1215 L 1000,1215 L 996,1219 L 995,1219 L 990,1224 L 989,1224 L 985,1228 L 984,1228 L 982,1230 L 982,1231 L 981,1232 L 981,1233 L 980,1234 L 980,1236 L 979,1237 L 979,1238 L 980,1239 L 980,1241 L 981,1242 L 981,1244 L 983,1246 L 983,1247 L 984,1248 L 985,1248 L 987,1250 L 999,1250 L 1000,1249 L 1001,1249 L 1002,1248 L 1003,1248 L 1006,1245 L 1007,1245 L 1012,1240 L 1013,1240 L 1017,1236 L 1018,1236 L 1022,1232 L 1023,1232 L 1025,1230 L 1026,1230 L 1030,1226 L 1031,1226 L 1034,1223 L 1036,1223 L 1039,1226 L 1040,1226 L 1045,1231 L 1046,1231 L 1053,1238 L 1054,1238 L 1060,1244 L 1061,1244 L 1064,1247 L 1065,1247 L 1066,1248 L 1067,1248 L 1068,1249 L 1069,1249 L 1070,1250 L 1081,1250 L 1082,1249 L 1083,1249 L 1084,1248 L 1085,1248 L 1087,1246 L 1088,1246 L 1091,1243 L 1092,1243 L 1096,1239 L 1097,1239 L 1102,1234 L 1103,1234 L 1105,1232 L 1106,1232 L 1112,1226 L 1113,1226 L 1115,1224 L 1116,1224 L 1117,1223 L 1118,1223 L 1119,1224 L 1120,1224 L 1128,1232 L 1129,1232 L 1134,1237 L 1135,1237 L 1140,1242 L 1141,1242 L 1147,1248 L 1148,1248 L 1149,1249 L 1150,1249 L 1151,1250 L 1162,1250 L 1164,1248 L 1165,1248 L 1168,1245 L 1168,1244 L 1169,1243 L 1169,1242 L 1170,1241 L 1170,1233 L 1168,1231 L 1168,1230 L 1163,1225 L 1162,1225 L 1157,1220 L 1156,1220 L 1153,1217 L 1152,1217 L 1145,1210 L 1144,1210 L 1140,1206 L 1139,1206 L 1134,1201 L 1133,1201 L 1130,1198 L 1129,1198 L 1127,1196 L 1126,1196 L 1125,1195 L 1123,1195 L 1122,1194 L 1112,1194 L 1111,1195 L 1108,1195 L 1106,1197 L 1105,1197 L 1101,1201 L 1100,1201 L 1096,1205 L 1095,1205 L 1090,1210 L 1089,1210 L 1085,1214 L 1084,1214 L 1079,1219 L 1078,1219 L 1076,1221 L 1074,1221 L 1068,1215 L 1067,1215 L 1062,1210 L 1061,1210 L 1056,1205 L 1055,1205 L 1050,1200 L 1049,1200 L 1046,1197 L 1045,1197 L 1043,1195 L 1041,1195 L 1040,1194 Z" fill="black" stroke="none" /><path d="M 1232,966 L 1231,967 L 1230,967 L 1228,969 L 1228,970 L 1227,971 L 1227,1240 L 1228,1241 L 1228,1242 L 1229,1243 L 1229,1244 L 1231,1246 L 1232,1246 L 1233,1247 L 1269,1247 L 1270,1246 L 1272,1246 L 1275,1243 L 1275,1242 L 1276,1241 L 1276,972 L 1275,971 L 1275,970 L 1274,969 L 1274,968 L 1273,968 L 1272,967 L 1270,967 L 1269,966 Z" fill="black" stroke="none" /><path d="M 719,966 L 718,967 L 705,967 L 704,968 L 703,968 L 701,970 L 701,972 L 700,973 L 700,1049 L 701,1050 L 701,1240 L 702,1241 L 702,1243 L 703,1244 L 703,1245 L 704,1246 L 705,1246 L 706,1247 L 746,1247 L 747,1246 L 748,1246 L 749,1245 L 749,1244 L 750,1243 L 750,1241 L 751,1240 L 751,1235 L 750,1234 L 750,1186 L 749,1185 L 749,1184 L 750,1183 L 750,1182 L 749,1181 L 749,1138 L 751,1136 L 781,1136 L 782,1137 L 782,1138 L 783,1139 L 783,1140 L 785,1142 L 785,1143 L 786,1144 L 786,1145 L 788,1147 L 788,1148 L 789,1149 L 789,1150 L 791,1152 L 791,1153 L 792,1154 L 792,1155 L 793,1156 L 793,1157 L 795,1159 L 795,1160 L 796,1161 L 796,1162 L 797,1163 L 797,1164 L 799,1166 L 799,1167 L 800,1168 L 800,1169 L 801,1170 L 801,1171 L 803,1173 L 803,1174 L 804,1175 L 804,1176 L 805,1177 L 805,1178 L 807,1180 L 807,1181 L 808,1182 L 808,1183 L 809,1184 L 809,1185 L 811,1187 L 811,1188 L 813,1190 L 813,1191 L 814,1192 L 814,1193 L 815,1194 L 815,1195 L 816,1196 L 816,1197 L 817,1198 L 817,1199 L 819,1201 L 819,1202 L 821,1204 L 821,1205 L 822,1206 L 822,1207 L 823,1208 L 823,1209 L 824,1210 L 824,1211 L 825,1212 L 825,1213 L 827,1215 L 827,1216 L 829,1218 L 829,1220 L 831,1222 L 831,1223 L 832,1224 L 832,1225 L 833,1226 L 833,1227 L 835,1229 L 835,1230 L 836,1231 L 836,1232 L 837,1233 L 837,1234 L 839,1236 L 839,1237 L 840,1238 L 840,1239 L 841,1240 L 841,1241 L 843,1243 L 843,1244 L 846,1247 L 899,1247 L 900,1246 L 901,1246 L 902,1245 L 902,1243 L 900,1241 L 900,1240 L 899,1239 L 899,1238 L 898,1237 L 898,1236 L 896,1234 L 896,1233 L 894,1231 L 894,1230 L 893,1229 L 893,1228 L 891,1226 L 891,1225 L 889,1223 L 889,1222 L 888,1221 L 888,1220 L 886,1218 L 886,1217 L 884,1215 L 884,1214 L 882,1212 L 882,1211 L 881,1210 L 881,1209 L 879,1207 L 879,1206 L 878,1205 L 878,1204 L 876,1202 L 876,1201 L 874,1199 L 874,1198 L 873,1197 L 873,1196 L 871,1194 L 871,1193 L 870,1192 L 870,1191 L 868,1189 L 868,1188 L 866,1186 L 866,1185 L 864,1183 L 864,1182 L 863,1181 L 863,1180 L 861,1178 L 861,1177 L 860,1176 L 860,1175 L 858,1173 L 858,1172 L 856,1170 L 856,1169 L 854,1167 L 854,1166 L 853,1165 L 853,1164 L 851,1162 L 851,1161 L 850,1160 L 850,1159 L 848,1157 L 848,1156 L 846,1154 L 846,1153 L 845,1152 L 845,1151 L 843,1149 L 843,1148 L 842,1147 L 842,1146 L 840,1144 L 840,1143 L 838,1141 L 838,1140 L 836,1138 L 836,1137 L 833,1134 L 833,1133 L 834,1132 L 835,1132 L 836,1131 L 837,1131 L 838,1130 L 841,1130 L 842,1129 L 843,1129 L 844,1128 L 846,1128 L 847,1127 L 848,1127 L 849,1126 L 850,1126 L 851,1125 L 852,1125 L 853,1124 L 854,1124 L 855,1123 L 856,1123 L 857,1122 L 858,1122 L 860,1120 L 861,1120 L 862,1119 L 863,1119 L 866,1116 L 867,1116 L 871,1112 L 872,1112 L 880,1104 L 880,1103 L 884,1099 L 884,1098 L 885,1097 L 885,1096 L 887,1094 L 887,1093 L 888,1092 L 888,1091 L 890,1089 L 890,1088 L 891,1087 L 891,1085 L 892,1084 L 892,1082 L 893,1081 L 893,1080 L 894,1079 L 894,1076 L 895,1075 L 895,1073 L 896,1072 L 896,1067 L 897,1066 L 897,1061 L 898,1060 L 898,1044 L 897,1043 L 897,1035 L 896,1034 L 896,1029 L 895,1028 L 895,1026 L 894,1025 L 894,1022 L 893,1021 L 893,1020 L 892,1019 L 892,1016 L 891,1015 L 891,1014 L 890,1013 L 890,1012 L 889,1011 L 889,1010 L 888,1009 L 888,1008 L 886,1006 L 886,1005 L 884,1003 L 884,1002 L 880,998 L 880,997 L 871,988 L 870,988 L 865,983 L 864,983 L 862,981 L 861,981 L 860,980 L 859,980 L 858,979 L 857,979 L 855,977 L 853,977 L 851,975 L 849,975 L 848,974 L 847,974 L 846,973 L 844,973 L 843,972 L 841,972 L 840,971 L 837,971 L 836,970 L 834,970 L 833,969 L 827,969 L 826,968 L 822,968 L 821,967 L 799,967 L 798,966 Z" fill="black" stroke="none" /><path d="M 192,961 L 191,962 L 164,962 L 163,963 L 162,963 L 160,965 L 160,967 L 159,968 L 159,981 L 160,982 L 160,1128 L 161,1129 L 161,1242 L 162,1243 L 162,1244 L 164,1246 L 165,1246 L 166,1247 L 201,1247 L 202,1246 L 203,1246 L 204,1245 L 204,1244 L 205,1243 L 205,1242 L 206,1241 L 206,1198 L 205,1197 L 205,1196 L 206,1195 L 206,1192 L 205,1191 L 205,1187 L 206,1186 L 206,1183 L 205,1182 L 205,1174 L 206,1173 L 206,1171 L 205,1170 L 205,1120 L 207,1118 L 246,1118 L 247,1119 L 250,1119 L 251,1118 L 269,1118 L 270,1117 L 272,1117 L 273,1116 L 278,1116 L 279,1115 L 281,1115 L 282,1114 L 285,1114 L 286,1113 L 288,1113 L 289,1112 L 291,1112 L 292,1111 L 293,1111 L 294,1110 L 296,1110 L 298,1108 L 300,1108 L 302,1106 L 303,1106 L 304,1105 L 305,1105 L 307,1103 L 308,1103 L 311,1100 L 312,1100 L 324,1088 L 324,1087 L 327,1084 L 327,1083 L 329,1081 L 329,1080 L 330,1079 L 330,1078 L 332,1076 L 332,1074 L 334,1072 L 334,1070 L 335,1069 L 335,1068 L 336,1067 L 336,1064 L 337,1063 L 337,1061 L 338,1060 L 338,1057 L 339,1056 L 339,1052 L 340,1051 L 340,1031 L 339,1030 L 339,1025 L 338,1024 L 338,1020 L 337,1019 L 337,1016 L 336,1015 L 336,1013 L 335,1012 L 335,1011 L 334,1010 L 334,1008 L 333,1007 L 333,1006 L 332,1005 L 332,1004 L 331,1003 L 331,1002 L 329,1000 L 329,999 L 328,998 L 328,997 L 325,994 L 325,993 L 312,980 L 311,980 L 308,977 L 307,977 L 305,975 L 304,975 L 302,973 L 300,973 L 298,971 L 296,971 L 295,970 L 294,970 L 293,969 L 291,969 L 290,968 L 289,968 L 288,967 L 285,967 L 284,966 L 281,966 L 280,965 L 276,965 L 275,964 L 272,964 L 271,963 L 261,963 L 260,962 L 244,962 L 243,961 L 241,961 L 240,962 L 232,962 L 231,961 L 225,961 L 224,962 L 223,961 L 222,962 L 194,962 L 193,961 Z" fill="black" stroke="none" /><path d="M 1699,940 L 1698,941 L 1690,941 L 1689,942 L 1688,942 L 1687,943 L 1684,943 L 1682,945 L 1681,945 L 1680,946 L 1679,946 L 1677,948 L 1676,948 L 1670,954 L 1670,955 L 1668,957 L 1668,958 L 1666,960 L 1666,961 L 1665,962 L 1665,964 L 1664,965 L 1664,967 L 1663,968 L 1663,973 L 1662,974 L 1662,983 L 1663,984 L 1663,989 L 1664,990 L 1664,992 L 1665,993 L 1665,995 L 1667,997 L 1667,998 L 1668,999 L 1668,1000 L 1670,1002 L 1670,1003 L 1673,1006 L 1673,1007 L 1675,1009 L 1675,1010 L 1665,1020 L 1665,1021 L 1660,1026 L 1660,1027 L 1657,1030 L 1657,1031 L 1655,1033 L 1655,1034 L 1653,1036 L 1653,1037 L 1651,1039 L 1651,1040 L 1650,1041 L 1650,1042 L 1649,1043 L 1649,1044 L 1647,1046 L 1647,1048 L 1646,1049 L 1646,1050 L 1645,1051 L 1645,1052 L 1644,1053 L 1644,1054 L 1643,1055 L 1643,1057 L 1642,1058 L 1642,1059 L 1641,1060 L 1641,1061 L 1640,1062 L 1640,1064 L 1639,1065 L 1639,1068 L 1638,1069 L 1638,1071 L 1637,1072 L 1637,1076 L 1636,1077 L 1636,1081 L 1635,1082 L 1635,1093 L 1634,1094 L 1634,1107 L 1633,1108 L 1633,1111 L 1634,1112 L 1634,1128 L 1635,1129 L 1635,1138 L 1636,1139 L 1636,1142 L 1637,1143 L 1637,1147 L 1638,1148 L 1638,1150 L 1639,1151 L 1639,1154 L 1640,1155 L 1640,1157 L 1641,1158 L 1641,1161 L 1642,1162 L 1642,1163 L 1643,1164 L 1643,1166 L 1645,1168 L 1645,1170 L 1646,1171 L 1646,1172 L 1647,1173 L 1647,1174 L 1648,1175 L 1648,1176 L 1649,1177 L 1649,1178 L 1651,1180 L 1651,1181 L 1652,1182 L 1652,1183 L 1653,1184 L 1653,1185 L 1655,1187 L 1655,1188 L 1658,1191 L 1658,1192 L 1661,1195 L 1661,1196 L 1666,1201 L 1666,1202 L 1676,1212 L 1677,1212 L 1683,1218 L 1684,1218 L 1688,1222 L 1689,1222 L 1691,1224 L 1692,1224 L 1694,1226 L 1695,1226 L 1697,1228 L 1698,1228 L 1699,1229 L 1700,1229 L 1701,1230 L 1702,1230 L 1704,1232 L 1706,1232 L 1707,1233 L 1708,1233 L 1709,1234 L 1710,1234 L 1711,1235 L 1712,1235 L 1713,1236 L 1715,1236 L 1716,1237 L 1717,1237 L 1718,1238 L 1720,1238 L 1721,1239 L 1722,1239 L 1723,1240 L 1725,1240 L 1726,1241 L 1728,1241 L 1729,1242 L 1733,1242 L 1734,1243 L 1735,1243 L 1736,1244 L 1741,1244 L 1742,1245 L 1746,1245 L 1747,1246 L 1755,1246 L 1756,1247 L 1763,1247 L 1764,1248 L 1779,1248 L 1780,1247 L 1791,1247 L 1792,1246 L 1799,1246 L 1800,1245 L 1803,1245 L 1804,1244 L 1808,1244 L 1809,1243 L 1811,1243 L 1812,1242 L 1816,1242 L 1817,1241 L 1818,1241 L 1819,1240 L 1822,1240 L 1823,1239 L 1824,1239 L 1825,1238 L 1827,1238 L 1828,1237 L 1829,1237 L 1830,1236 L 1832,1236 L 1833,1235 L 1834,1235 L 1835,1234 L 1836,1234 L 1837,1233 L 1838,1233 L 1839,1232 L 1840,1232 L 1841,1231 L 1842,1231 L 1843,1230 L 1844,1230 L 1846,1228 L 1847,1228 L 1848,1227 L 1849,1227 L 1850,1226 L 1851,1226 L 1853,1224 L 1854,1224 L 1858,1220 L 1859,1220 L 1861,1218 L 1862,1218 L 1882,1198 L 1882,1197 L 1884,1195 L 1884,1194 L 1887,1191 L 1887,1190 L 1889,1188 L 1889,1187 L 1891,1185 L 1891,1184 L 1892,1183 L 1892,1182 L 1894,1180 L 1894,1179 L 1895,1178 L 1895,1177 L 1896,1176 L 1896,1175 L 1898,1173 L 1898,1171 L 1899,1170 L 1899,1169 L 1900,1168 L 1900,1166 L 1901,1165 L 1901,1164 L 1902,1163 L 1902,1161 L 1903,1160 L 1903,1159 L 1904,1158 L 1904,1155 L 1905,1154 L 1905,1153 L 1906,1152 L 1906,1148 L 1907,1147 L 1907,1146 L 1908,1145 L 1908,1140 L 1909,1139 L 1909,1135 L 1910,1134 L 1910,1098 L 1908,1096 L 1802,1096 L 1801,1095 L 1793,1095 L 1792,1096 L 1787,1096 L 1786,1095 L 1785,1095 L 1784,1096 L 1761,1096 L 1759,1098 L 1759,1100 L 1758,1101 L 1758,1125 L 1759,1126 L 1759,1131 L 1760,1132 L 1760,1133 L 1761,1134 L 1858,1134 L 1859,1135 L 1859,1139 L 1858,1140 L 1858,1142 L 1857,1143 L 1857,1147 L 1856,1148 L 1856,1150 L 1855,1151 L 1855,1153 L 1854,1154 L 1854,1155 L 1853,1156 L 1853,1159 L 1852,1160 L 1852,1161 L 1851,1162 L 1851,1163 L 1850,1164 L 1850,1165 L 1849,1166 L 1849,1168 L 1847,1170 L 1847,1171 L 1846,1172 L 1846,1173 L 1845,1174 L 1845,1175 L 1843,1177 L 1843,1178 L 1841,1180 L 1841,1181 L 1834,1188 L 1833,1188 L 1828,1193 L 1827,1193 L 1825,1195 L 1824,1195 L 1822,1197 L 1820,1197 L 1818,1199 L 1816,1199 L 1814,1201 L 1812,1201 L 1811,1202 L 1810,1202 L 1809,1203 L 1806,1203 L 1805,1204 L 1803,1204 L 1802,1205 L 1799,1205 L 1798,1206 L 1795,1206 L 1794,1207 L 1783,1207 L 1782,1208 L 1764,1208 L 1763,1207 L 1755,1207 L 1754,1206 L 1752,1206 L 1751,1205 L 1746,1205 L 1745,1204 L 1744,1204 L 1743,1203 L 1741,1203 L 1740,1202 L 1739,1202 L 1738,1201 L 1736,1201 L 1735,1200 L 1734,1200 L 1733,1199 L 1732,1199 L 1731,1198 L 1730,1198 L 1729,1197 L 1728,1197 L 1726,1195 L 1725,1195 L 1723,1193 L 1722,1193 L 1718,1189 L 1717,1189 L 1708,1180 L 1708,1179 L 1703,1174 L 1703,1173 L 1701,1171 L 1701,1170 L 1698,1167 L 1698,1166 L 1697,1165 L 1697,1164 L 1696,1163 L 1696,1162 L 1695,1161 L 1695,1160 L 1694,1159 L 1694,1158 L 1693,1157 L 1693,1156 L 1692,1155 L 1692,1154 L 1691,1153 L 1691,1152 L 1690,1151 L 1690,1149 L 1689,1148 L 1689,1146 L 1688,1145 L 1688,1143 L 1687,1142 L 1687,1140 L 1686,1139 L 1686,1135 L 1685,1134 L 1685,1128 L 1684,1127 L 1684,1103 L 1683,1102 L 1684,1101 L 1684,1089 L 1685,1088 L 1685,1085 L 1686,1084 L 1686,1080 L 1687,1079 L 1687,1077 L 1688,1076 L 1688,1073 L 1689,1072 L 1689,1071 L 1690,1070 L 1690,1068 L 1692,1066 L 1692,1064 L 1694,1062 L 1694,1060 L 1696,1058 L 1696,1057 L 1698,1055 L 1698,1054 L 1699,1053 L 1699,1052 L 1702,1049 L 1702,1048 L 1704,1046 L 1704,1045 L 1708,1041 L 1708,1040 L 1720,1028 L 1721,1028 L 1723,1026 L 1724,1026 L 1727,1023 L 1728,1023 L 1730,1021 L 1731,1021 L 1732,1020 L 1733,1020 L 1735,1018 L 1737,1018 L 1738,1017 L 1739,1017 L 1740,1016 L 1741,1016 L 1742,1015 L 1743,1015 L 1744,1014 L 1747,1014 L 1748,1013 L 1749,1013 L 1750,1012 L 1755,1012 L 1756,1011 L 1760,1011 L 1761,1010 L 1787,1010 L 1788,1011 L 1792,1011 L 1793,1012 L 1797,1012 L 1798,1013 L 1800,1013 L 1801,1014 L 1804,1014 L 1805,1015 L 1806,1015 L 1807,1016 L 1809,1016 L 1811,1018 L 1813,1018 L 1815,1020 L 1816,1020 L 1817,1021 L 1818,1021 L 1821,1024 L 1822,1024 L 1825,1027 L 1826,1027 L 1835,1036 L 1835,1037 L 1837,1039 L 1837,1040 L 1839,1042 L 1839,1043 L 1841,1045 L 1841,1046 L 1843,1048 L 1843,1049 L 1844,1050 L 1844,1051 L 1846,1053 L 1848,1053 L 1849,1054 L 1863,1054 L 1864,1053 L 1871,1053 L 1872,1054 L 1879,1054 L 1880,1053 L 1883,1053 L 1884,1054 L 1898,1054 L 1899,1053 L 1900,1053 L 1901,1052 L 1901,1050 L 1900,1049 L 1900,1047 L 1898,1045 L 1898,1043 L 1897,1042 L 1897,1041 L 1896,1040 L 1896,1038 L 1894,1036 L 1894,1034 L 1892,1032 L 1892,1031 L 1890,1029 L 1890,1028 L 1888,1026 L 1888,1025 L 1886,1023 L 1886,1022 L 1883,1019 L 1883,1018 L 1878,1013 L 1878,1012 L 1877,1012 L 1872,1007 L 1872,1006 L 1871,1005 L 1870,1005 L 1862,997 L 1861,997 L 1857,993 L 1856,993 L 1854,991 L 1853,991 L 1851,989 L 1850,989 L 1849,988 L 1848,988 L 1846,986 L 1845,986 L 1844,985 L 1843,985 L 1842,984 L 1841,984 L 1840,983 L 1839,983 L 1838,982 L 1837,982 L 1836,981 L 1835,981 L 1834,980 L 1833,980 L 1832,979 L 1830,979 L 1829,978 L 1828,978 L 1827,977 L 1824,977 L 1823,976 L 1822,976 L 1821,975 L 1818,975 L 1817,974 L 1815,974 L 1814,973 L 1810,973 L 1809,972 L 1804,972 L 1803,971 L 1796,971 L 1795,970 L 1782,970 L 1781,969 L 1762,969 L 1761,970 L 1751,970 L 1750,971 L 1744,971 L 1743,972 L 1742,972 L 1740,970 L 1740,968 L 1738,966 L 1738,965 L 1737,964 L 1737,963 L 1736,962 L 1736,961 L 1732,957 L 1732,956 L 1725,949 L 1724,949 L 1722,947 L 1721,947 L 1719,945 L 1718,945 L 1717,944 L 1716,944 L 1715,943 L 1712,943 L 1711,942 L 1710,942 L 1709,941 L 1701,941 L 1700,940 Z" fill="black" stroke="none" /><path d="M 1537,883 L 1536,884 L 1524,884 L 1521,887 L 1521,888 L 1520,889 L 1520,1083 L 1519,1084 L 1519,1090 L 1520,1091 L 1520,1141 L 1519,1142 L 1518,1141 L 1518,1140 L 1517,1139 L 1517,1138 L 1516,1137 L 1516,1136 L 1514,1134 L 1514,1133 L 1513,1132 L 1513,1131 L 1512,1130 L 1512,1129 L 1510,1127 L 1510,1126 L 1508,1124 L 1508,1123 L 1506,1121 L 1506,1120 L 1504,1118 L 1504,1117 L 1503,1116 L 1503,1115 L 1501,1113 L 1501,1112 L 1499,1110 L 1499,1109 L 1497,1107 L 1497,1106 L 1496,1105 L 1496,1104 L 1494,1102 L 1494,1101 L 1492,1099 L 1492,1098 L 1490,1096 L 1490,1095 L 1487,1092 L 1487,1091 L 1486,1090 L 1486,1089 L 1484,1087 L 1484,1086 L 1482,1084 L 1482,1083 L 1480,1081 L 1480,1080 L 1478,1078 L 1478,1077 L 1476,1075 L 1476,1074 L 1474,1072 L 1474,1071 L 1472,1069 L 1472,1068 L 1470,1066 L 1470,1065 L 1468,1063 L 1468,1062 L 1466,1060 L 1466,1059 L 1464,1057 L 1464,1056 L 1462,1054 L 1462,1053 L 1460,1051 L 1460,1050 L 1458,1048 L 1458,1047 L 1456,1045 L 1456,1044 L 1454,1042 L 1454,1041 L 1452,1039 L 1452,1038 L 1451,1037 L 1451,1036 L 1448,1033 L 1448,1032 L 1447,1031 L 1447,1030 L 1445,1028 L 1445,1027 L 1443,1025 L 1443,1024 L 1440,1021 L 1440,1020 L 1439,1019 L 1439,1018 L 1437,1016 L 1437,1015 L 1436,1014 L 1436,1013 L 1433,1010 L 1433,1009 L 1431,1007 L 1431,1006 L 1430,1005 L 1430,1004 L 1428,1002 L 1428,1001 L 1426,999 L 1426,998 L 1425,997 L 1425,996 L 1422,993 L 1422,992 L 1420,990 L 1420,989 L 1418,987 L 1418,986 L 1416,984 L 1416,983 L 1414,981 L 1414,980 L 1412,978 L 1412,977 L 1410,975 L 1410,974 L 1408,972 L 1408,971 L 1405,968 L 1405,967 L 1404,966 L 1404,965 L 1402,963 L 1402,962 L 1400,960 L 1400,959 L 1398,957 L 1398,956 L 1395,953 L 1395,952 L 1391,948 L 1390,948 L 1389,947 L 1349,947 L 1346,950 L 1346,955 L 1345,956 L 1345,1022 L 1346,1023 L 1346,1026 L 1345,1027 L 1345,1047 L 1346,1048 L 1346,1156 L 1347,1157 L 1347,1158 L 1349,1160 L 1391,1160 L 1392,1159 L 1392,1158 L 1393,1157 L 1393,1155 L 1394,1154 L 1394,1153 L 1393,1152 L 1393,1059 L 1392,1058 L 1392,1023 L 1393,1022 L 1395,1024 L 1395,1025 L 1396,1026 L 1396,1027 L 1397,1028 L 1397,1029 L 1399,1031 L 1399,1032 L 1401,1034 L 1401,1035 L 1402,1036 L 1402,1037 L 1405,1040 L 1405,1041 L 1406,1042 L 1406,1043 L 1408,1045 L 1408,1046 L 1410,1048 L 1410,1049 L 1412,1051 L 1412,1052 L 1413,1053 L 1413,1054 L 1416,1057 L 1416,1058 L 1418,1060 L 1418,1061 L 1420,1063 L 1420,1064 L 1421,1065 L 1421,1066 L 1423,1068 L 1423,1069 L 1425,1071 L 1425,1072 L 1427,1074 L 1427,1075 L 1429,1077 L 1429,1078 L 1431,1080 L 1431,1081 L 1433,1083 L 1433,1084 L 1435,1086 L 1435,1087 L 1437,1089 L 1437,1090 L 1439,1092 L 1439,1093 L 1441,1095 L 1441,1096 L 1443,1098 L 1443,1099 L 1445,1101 L 1445,1102 L 1447,1104 L 1447,1105 L 1448,1106 L 1448,1107 L 1450,1109 L 1450,1110 L 1452,1112 L 1452,1113 L 1454,1115 L 1454,1116 L 1456,1118 L 1456,1119 L 1459,1122 L 1459,1123 L 1460,1124 L 1460,1125 L 1463,1128 L 1463,1129 L 1464,1130 L 1464,1131 L 1465,1132 L 1465,1133 L 1468,1136 L 1468,1137 L 1469,1138 L 1469,1139 L 1471,1141 L 1471,1142 L 1473,1144 L 1473,1145 L 1476,1148 L 1476,1149 L 1477,1150 L 1477,1151 L 1479,1153 L 1479,1154 L 1481,1156 L 1481,1157 L 1484,1160 L 1484,1161 L 1485,1162 L 1485,1163 L 1487,1165 L 1487,1166 L 1489,1168 L 1489,1169 L 1491,1171 L 1491,1172 L 1494,1175 L 1494,1176 L 1496,1178 L 1496,1179 L 1497,1180 L 1497,1181 L 1500,1184 L 1500,1185 L 1502,1187 L 1502,1188 L 1503,1189 L 1503,1190 L 1505,1192 L 1505,1193 L 1507,1195 L 1507,1196 L 1509,1198 L 1509,1199 L 1511,1201 L 1511,1202 L 1513,1204 L 1513,1205 L 1515,1207 L 1515,1208 L 1517,1210 L 1517,1211 L 1519,1213 L 1519,1214 L 1520,1215 L 1520,1216 L 1522,1218 L 1522,1219 L 1524,1221 L 1525,1221 L 1526,1222 L 1565,1222 L 1566,1221 L 1567,1221 L 1568,1220 L 1568,889 L 1567,888 L 1567,887 L 1564,884 L 1553,884 L 1552,883 L 1546,883 L 1545,884 L 1542,884 L 1541,883 L 1540,884 L 1538,884 Z" fill="black" stroke="none" /><path d="M 981,883 L 980,884 L 978,884 L 977,885 L 976,885 L 975,886 L 975,887 L 974,888 L 974,1155 L 975,1156 L 975,1157 L 977,1159 L 978,1159 L 979,1160 L 1017,1160 L 1018,1159 L 1019,1159 L 1021,1157 L 1021,1155 L 1022,1154 L 1022,1041 L 1023,1040 L 1027,1044 L 1027,1045 L 1030,1048 L 1030,1049 L 1034,1053 L 1034,1054 L 1039,1059 L 1039,1060 L 1045,1066 L 1045,1067 L 1050,1072 L 1050,1073 L 1057,1080 L 1057,1081 L 1063,1087 L 1063,1088 L 1067,1092 L 1067,1093 L 1074,1100 L 1074,1101 L 1079,1106 L 1079,1107 L 1086,1114 L 1086,1115 L 1093,1122 L 1093,1123 L 1098,1128 L 1098,1129 L 1105,1136 L 1105,1137 L 1109,1141 L 1109,1142 L 1115,1148 L 1115,1149 L 1121,1155 L 1121,1156 L 1124,1159 L 1125,1159 L 1126,1160 L 1179,1160 L 1180,1159 L 1180,1156 L 1179,1155 L 1179,1154 L 1176,1151 L 1176,1150 L 1172,1146 L 1172,1145 L 1162,1135 L 1162,1134 L 1157,1129 L 1157,1128 L 1150,1121 L 1150,1120 L 1144,1114 L 1144,1113 L 1138,1107 L 1138,1106 L 1137,1106 L 1136,1105 L 1136,1104 L 1132,1100 L 1132,1099 L 1126,1093 L 1126,1092 L 1119,1085 L 1119,1084 L 1111,1076 L 1111,1075 L 1106,1070 L 1106,1069 L 1098,1061 L 1098,1060 L 1093,1055 L 1093,1054 L 1083,1044 L 1083,1043 L 1078,1038 L 1078,1037 L 1070,1029 L 1070,1028 L 1066,1024 L 1066,1023 L 1065,1022 L 1066,1021 L 1066,1020 L 1067,1019 L 1068,1019 L 1068,1018 L 1075,1011 L 1075,1010 L 1081,1004 L 1081,1003 L 1088,996 L 1088,995 L 1094,989 L 1094,988 L 1105,977 L 1105,976 L 1109,972 L 1109,971 L 1119,961 L 1119,960 L 1124,955 L 1124,954 L 1134,944 L 1134,943 L 1144,933 L 1144,932 L 1150,926 L 1150,925 L 1156,919 L 1156,918 L 1169,905 L 1169,904 L 1173,900 L 1173,899 L 1180,892 L 1180,891 L 1181,890 L 1181,889 L 1182,888 L 1182,887 L 1181,886 L 1181,885 L 1177,885 L 1176,884 L 1128,884 L 1127,885 L 1126,885 L 1124,887 L 1124,888 L 1119,893 L 1119,894 L 1116,897 L 1116,898 L 1111,903 L 1111,904 L 1105,910 L 1105,911 L 1100,916 L 1100,917 L 1095,922 L 1095,923 L 1091,927 L 1091,928 L 1088,931 L 1088,932 L 1082,938 L 1082,939 L 1078,943 L 1078,944 L 1073,949 L 1073,950 L 1069,954 L 1069,955 L 1065,959 L 1065,960 L 1059,966 L 1059,967 L 1053,973 L 1053,974 L 1049,978 L 1049,979 L 1044,984 L 1044,985 L 1041,988 L 1041,989 L 1035,995 L 1035,996 L 1031,1000 L 1031,1001 L 1026,1006 L 1023,1006 L 1022,1005 L 1022,890 L 1021,889 L 1021,888 L 1020,887 L 1020,886 L 1019,885 L 1018,885 L 1017,884 L 1014,884 L 1013,883 Z" fill="black" stroke="none" /><path d="M 483,882 L 482,883 L 480,883 L 479,884 L 479,885 L 478,886 L 478,887 L 477,888 L 477,890 L 476,891 L 476,892 L 475,893 L 475,895 L 474,896 L 474,897 L 473,898 L 473,901 L 472,902 L 472,904 L 471,905 L 471,907 L 470,908 L 470,910 L 469,911 L 469,913 L 468,914 L 468,916 L 467,917 L 467,919 L 466,920 L 466,921 L 465,922 L 465,925 L 464,926 L 464,927 L 463,928 L 463,931 L 462,932 L 462,933 L 461,934 L 461,937 L 460,938 L 460,939 L 459,940 L 459,942 L 458,943 L 458,944 L 457,945 L 457,948 L 456,949 L 456,950 L 455,951 L 455,954 L 454,955 L 454,956 L 453,957 L 453,960 L 452,961 L 452,962 L 451,963 L 451,965 L 450,966 L 450,967 L 449,968 L 449,971 L 448,972 L 448,973 L 447,974 L 447,977 L 446,978 L 446,979 L 445,980 L 445,983 L 444,984 L 444,985 L 443,986 L 443,989 L 442,990 L 442,991 L 441,992 L 441,994 L 440,995 L 440,997 L 439,998 L 439,1000 L 438,1001 L 438,1002 L 437,1003 L 437,1006 L 436,1007 L 436,1008 L 435,1009 L 435,1011 L 434,1012 L 434,1014 L 433,1015 L 433,1017 L 432,1018 L 432,1020 L 431,1021 L 431,1023 L 430,1024 L 430,1026 L 429,1027 L 429,1029 L 428,1030 L 428,1032 L 427,1033 L 427,1035 L 426,1036 L 426,1037 L 425,1038 L 425,1041 L 424,1042 L 424,1043 L 423,1044 L 423,1047 L 422,1048 L 422,1049 L 421,1050 L 421,1052 L 420,1053 L 420,1055 L 419,1056 L 419,1058 L 418,1059 L 418,1060 L 417,1061 L 417,1064 L 416,1065 L 416,1066 L 415,1067 L 415,1070 L 414,1071 L 414,1072 L 413,1073 L 413,1075 L 412,1076 L 412,1078 L 411,1079 L 411,1081 L 410,1082 L 410,1083 L 409,1084 L 409,1087 L 408,1088 L 408,1089 L 407,1090 L 407,1093 L 406,1094 L 406,1095 L 405,1096 L 405,1099 L 404,1100 L 404,1101 L 403,1102 L 403,1105 L 402,1106 L 402,1107 L 401,1108 L 401,1111 L 400,1112 L 400,1113 L 399,1114 L 399,1116 L 398,1117 L 398,1119 L 397,1120 L 397,1122 L 396,1123 L 396,1125 L 395,1126 L 395,1128 L 394,1129 L 394,1130 L 393,1131 L 393,1134 L 392,1135 L 392,1136 L 391,1137 L 391,1139 L 390,1140 L 390,1142 L 389,1143 L 389,1146 L 388,1147 L 388,1148 L 387,1149 L 387,1151 L 386,1152 L 386,1153 L 385,1154 L 385,1159 L 386,1160 L 387,1160 L 388,1161 L 401,1161 L 402,1162 L 403,1161 L 431,1161 L 432,1160 L 432,1159 L 433,1158 L 433,1157 L 434,1156 L 434,1153 L 435,1152 L 435,1151 L 436,1150 L 436,1148 L 437,1147 L 437,1145 L 438,1144 L 438,1142 L 439,1141 L 439,1140 L 440,1139 L 440,1136 L 441,1135 L 441,1134 L 442,1133 L 442,1131 L 443,1130 L 443,1128 L 444,1127 L 444,1124 L 445,1123 L 445,1122 L 446,1121 L 446,1119 L 447,1118 L 447,1116 L 448,1115 L 448,1113 L 449,1112 L 449,1110 L 450,1109 L 450,1107 L 451,1106 L 451,1105 L 453,1103 L 560,1103 L 561,1104 L 561,1106 L 562,1107 L 562,1109 L 563,1110 L 563,1112 L 564,1113 L 564,1115 L 565,1116 L 565,1118 L 566,1119 L 566,1120 L 567,1121 L 567,1123 L 568,1124 L 568,1126 L 569,1127 L 569,1129 L 570,1130 L 570,1132 L 571,1133 L 571,1135 L 572,1136 L 572,1137 L 573,1138 L 573,1141 L 574,1142 L 574,1143 L 575,1144 L 575,1146 L 576,1147 L 576,1149 L 577,1150 L 577,1152 L 578,1153 L 578,1154 L 579,1155 L 579,1158 L 580,1159 L 580,1160 L 581,1161 L 581,1163 L 582,1164 L 582,1166 L 583,1167 L 583,1169 L 584,1170 L 584,1172 L 585,1173 L 585,1175 L 586,1176 L 586,1177 L 587,1178 L 587,1181 L 588,1182 L 588,1183 L 589,1184 L 589,1186 L 590,1187 L 590,1189 L 591,1190 L 591,1192 L 592,1193 L 592,1194 L 593,1195 L 593,1197 L 594,1198 L 594,1200 L 595,1201 L 595,1203 L 596,1204 L 596,1206 L 597,1207 L 597,1209 L 598,1210 L 598,1211 L 599,1212 L 599,1215 L 600,1216 L 600,1217 L 601,1218 L 601,1219 L 602,1220 L 602,1221 L 603,1221 L 604,1222 L 606,1222 L 607,1223 L 618,1223 L 619,1222 L 620,1223 L 643,1223 L 644,1222 L 649,1222 L 650,1221 L 650,1218 L 649,1217 L 649,1216 L 648,1215 L 648,1214 L 647,1213 L 647,1211 L 646,1210 L 646,1208 L 645,1207 L 645,1205 L 644,1204 L 644,1202 L 643,1201 L 643,1200 L 642,1199 L 642,1197 L 641,1196 L 641,1194 L 640,1193 L 640,1190 L 639,1189 L 639,1188 L 638,1187 L 638,1185 L 637,1184 L 637,1183 L 636,1182 L 636,1179 L 635,1178 L 635,1177 L 634,1176 L 634,1173 L 633,1172 L 633,1171 L 632,1170 L 632,1168 L 631,1167 L 631,1166 L 630,1165 L 630,1162 L 629,1161 L 629,1160 L 628,1159 L 628,1156 L 627,1155 L 627,1154 L 626,1153 L 626,1150 L 625,1149 L 625,1148 L 624,1147 L 624,1144 L 623,1143 L 623,1142 L 622,1141 L 622,1138 L 621,1137 L 621,1136 L 620,1135 L 620,1133 L 619,1132 L 619,1131 L 618,1130 L 618,1127 L 617,1126 L 617,1125 L 616,1124 L 616,1122 L 615,1121 L 615,1119 L 614,1118 L 614,1115 L 613,1114 L 613,1113 L 612,1112 L 612,1110 L 611,1109 L 611,1108 L 610,1107 L 610,1104 L 609,1103 L 609,1102 L 608,1101 L 608,1098 L 607,1097 L 607,1096 L 606,1095 L 606,1093 L 605,1092 L 605,1090 L 604,1089 L 604,1087 L 603,1086 L 603,1085 L 602,1084 L 602,1081 L 601,1080 L 601,1079 L 600,1078 L 600,1076 L 599,1075 L 599,1074 L 598,1073 L 598,1069 L 597,1068 L 597,1067 L 596,1066 L 596,1064 L 595,1063 L 595,1062 L 594,1061 L 594,1058 L 593,1057 L 593,1056 L 592,1055 L 592,1052 L 591,1051 L 591,1050 L 590,1049 L 590,1046 L 589,1045 L 589,1044 L 588,1043 L 588,1041 L 587,1040 L 587,1039 L 586,1038 L 586,1036 L 585,1035 L 585,1033 L 584,1032 L 584,1030 L 583,1029 L 583,1027 L 582,1026 L 582,1024 L 581,1023 L 581,1021 L 580,1020 L 580,1018 L 579,1017 L 579,1016 L 578,1015 L 578,1012 L 577,1011 L 577,1010 L 576,1009 L 576,1006 L 575,1005 L 575,1004 L 574,1003 L 574,1000 L 573,999 L 573,998 L 572,997 L 572,995 L 571,994 L 571,992 L 570,991 L 570,989 L 569,988 L 569,987 L 568,986 L 568,983 L 567,982 L 567,981 L 566,980 L 566,978 L 565,977 L 565,976 L 564,975 L 564,972 L 563,971 L 563,970 L 562,969 L 562,966 L 561,965 L 561,964 L 560,963 L 560,960 L 559,959 L 559,958 L 558,957 L 558,955 L 557,954 L 557,952 L 556,951 L 556,949 L 555,948 L 555,946 L 554,945 L 554,944 L 553,943 L 553,941 L 552,940 L 552,937 L 551,936 L 551,935 L 550,934 L 550,932 L 549,931 L 549,930 L 548,929 L 548,926 L 547,925 L 547,924 L 546,923 L 546,920 L 545,919 L 545,918 L 544,917 L 544,914 L 543,913 L 543,912 L 542,911 L 542,908 L 541,907 L 541,906 L 540,905 L 540,902 L 539,901 L 539,900 L 538,899 L 538,897 L 537,896 L 537,894 L 536,893 L 536,891 L 535,890 L 535,888 L 534,887 L 534,886 L 531,883 L 527,883 L 526,882 Z" fill="black" stroke="none" /><path d="M 719,880 L 718,881 L 712,881 L 711,882 L 710,882 L 709,883 L 708,883 L 707,884 L 706,884 L 698,892 L 698,893 L 697,894 L 697,895 L 696,896 L 696,898 L 695,899 L 695,910 L 696,911 L 696,913 L 697,914 L 697,915 L 698,916 L 698,917 L 707,926 L 708,926 L 709,927 L 710,927 L 711,928 L 716,928 L 717,929 L 721,929 L 722,928 L 875,928 L 876,927 L 878,927 L 879,926 L 880,926 L 888,918 L 888,917 L 890,915 L 890,913 L 891,912 L 891,908 L 892,907 L 892,900 L 891,899 L 891,897 L 890,896 L 890,894 L 888,892 L 888,891 L 881,884 L 880,884 L 879,883 L 878,883 L 877,882 L 876,882 L 875,881 L 871,881 L 870,880 L 861,880 L 860,881 L 720,881 Z" fill="black" stroke="none" /><path d="M 1295,683 L 1294,684 L 1294,686 L 1295,687 L 1295,688 L 1296,689 L 1296,692 L 1297,693 L 1297,696 L 1298,697 L 1298,698 L 1299,699 L 1299,702 L 1300,703 L 1300,705 L 1301,706 L 1301,707 L 1302,708 L 1302,710 L 1303,711 L 1303,714 L 1304,715 L 1304,717 L 1305,718 L 1305,720 L 1306,721 L 1306,723 L 1307,724 L 1307,726 L 1308,727 L 1308,729 L 1309,730 L 1309,733 L 1310,734 L 1310,735 L 1311,736 L 1311,740 L 1312,741 L 1312,742 L 1313,743 L 1313,746 L 1314,747 L 1314,748 L 1315,749 L 1315,755 L 1314,756 L 1314,759 L 1313,760 L 1313,762 L 1312,763 L 1312,765 L 1311,766 L 1311,770 L 1310,771 L 1310,773 L 1309,774 L 1309,777 L 1308,778 L 1308,780 L 1307,781 L 1307,785 L 1306,786 L 1306,788 L 1305,789 L 1305,794 L 1306,795 L 1307,795 L 1308,796 L 1312,796 L 1313,797 L 1314,797 L 1315,796 L 1316,796 L 1318,794 L 1318,792 L 1319,791 L 1319,788 L 1320,787 L 1320,785 L 1321,784 L 1321,782 L 1322,781 L 1322,777 L 1323,776 L 1323,775 L 1324,774 L 1324,770 L 1325,769 L 1325,767 L 1326,766 L 1326,762 L 1327,761 L 1327,759 L 1328,758 L 1328,755 L 1329,754 L 1329,753 L 1345,737 L 1346,737 L 1354,729 L 1355,729 L 1376,708 L 1377,708 L 1378,707 L 1378,706 L 1377,705 L 1377,704 L 1376,704 L 1375,703 L 1373,703 L 1372,702 L 1371,702 L 1370,701 L 1366,701 L 1362,705 L 1361,705 L 1344,722 L 1343,722 L 1334,731 L 1333,731 L 1326,738 L 1325,738 L 1324,737 L 1324,734 L 1323,733 L 1323,732 L 1322,731 L 1322,728 L 1321,727 L 1321,725 L 1320,724 L 1320,722 L 1319,721 L 1319,719 L 1318,718 L 1318,716 L 1317,715 L 1317,714 L 1316,713 L 1316,710 L 1315,709 L 1315,707 L 1314,706 L 1314,704 L 1313,703 L 1313,701 L 1312,700 L 1312,698 L 1311,697 L 1311,695 L 1310,694 L 1310,691 L 1309,690 L 1309,689 L 1308,688 L 1308,686 L 1307,685 L 1306,685 L 1305,684 L 1303,684 L 1302,683 Z" fill="black" stroke="none" /><path d="M 794,677 L 793,678 L 791,678 L 790,679 L 789,679 L 787,681 L 787,687 L 788,688 L 788,693 L 789,694 L 789,699 L 790,700 L 790,703 L 791,704 L 791,709 L 792,710 L 792,715 L 793,716 L 793,720 L 794,721 L 794,725 L 795,726 L 795,728 L 796,729 L 796,730 L 795,731 L 794,731 L 793,732 L 790,732 L 789,733 L 785,733 L 784,734 L 781,734 L 780,735 L 774,735 L 773,736 L 769,736 L 768,737 L 763,737 L 762,738 L 759,738 L 758,739 L 752,739 L 751,740 L 748,740 L 747,741 L 742,741 L 741,740 L 741,738 L 740,737 L 740,731 L 739,730 L 739,726 L 738,725 L 738,721 L 737,720 L 737,716 L 736,715 L 736,711 L 735,710 L 735,706 L 734,705 L 734,700 L 733,699 L 733,695 L 732,694 L 732,691 L 730,689 L 723,689 L 722,690 L 721,690 L 720,691 L 720,692 L 719,693 L 719,699 L 720,700 L 720,705 L 721,706 L 721,710 L 722,711 L 722,715 L 723,716 L 723,721 L 724,722 L 724,725 L 725,726 L 725,731 L 726,732 L 726,735 L 727,736 L 727,741 L 728,742 L 728,747 L 729,748 L 729,752 L 730,753 L 730,757 L 731,758 L 731,762 L 732,763 L 732,767 L 733,768 L 733,773 L 734,774 L 734,778 L 735,779 L 735,783 L 736,784 L 736,789 L 737,790 L 737,792 L 738,793 L 738,794 L 739,794 L 740,795 L 746,795 L 747,794 L 748,794 L 750,792 L 750,784 L 749,783 L 749,778 L 748,777 L 748,772 L 747,771 L 747,767 L 746,766 L 746,762 L 745,761 L 745,755 L 746,754 L 749,754 L 750,753 L 754,753 L 755,752 L 760,752 L 761,751 L 764,751 L 765,750 L 770,750 L 771,749 L 774,749 L 775,748 L 780,748 L 781,747 L 784,747 L 785,746 L 790,746 L 791,745 L 794,745 L 795,744 L 797,744 L 798,745 L 798,747 L 799,748 L 799,753 L 800,754 L 800,757 L 801,758 L 801,762 L 802,763 L 802,768 L 803,769 L 803,773 L 804,774 L 804,776 L 805,777 L 805,778 L 807,780 L 813,780 L 814,779 L 815,779 L 817,777 L 817,768 L 816,767 L 816,762 L 815,761 L 815,758 L 814,757 L 814,752 L 813,751 L 813,746 L 812,745 L 812,740 L 811,739 L 811,735 L 810,734 L 810,730 L 809,729 L 809,725 L 808,724 L 808,720 L 807,719 L 807,715 L 806,714 L 806,709 L 805,708 L 805,704 L 804,703 L 804,698 L 803,697 L 803,694 L 802,693 L 802,689 L 801,688 L 801,683 L 800,682 L 800,680 L 798,678 L 796,678 L 795,677 Z" fill="black" stroke="none" /><path d="M 1164,662 L 1162,664 L 1162,665 L 1161,666 L 1161,672 L 1160,673 L 1160,678 L 1159,679 L 1159,686 L 1158,687 L 1158,693 L 1157,694 L 1157,701 L 1156,702 L 1156,708 L 1155,709 L 1155,717 L 1154,718 L 1154,724 L 1153,725 L 1153,731 L 1152,732 L 1152,739 L 1151,740 L 1151,747 L 1150,748 L 1150,755 L 1149,756 L 1149,767 L 1150,767 L 1151,768 L 1152,768 L 1153,769 L 1159,769 L 1160,768 L 1161,768 L 1161,767 L 1162,766 L 1162,760 L 1163,759 L 1163,754 L 1164,753 L 1164,744 L 1165,743 L 1164,742 L 1165,741 L 1165,740 L 1166,739 L 1168,739 L 1169,740 L 1178,740 L 1179,741 L 1185,741 L 1186,742 L 1200,742 L 1201,741 L 1205,741 L 1206,740 L 1209,740 L 1210,739 L 1212,739 L 1213,738 L 1214,738 L 1215,737 L 1216,737 L 1218,735 L 1219,735 L 1227,727 L 1227,726 L 1228,725 L 1228,724 L 1230,722 L 1230,720 L 1231,719 L 1231,718 L 1232,717 L 1232,715 L 1233,714 L 1233,711 L 1234,710 L 1234,696 L 1233,695 L 1233,692 L 1232,691 L 1232,690 L 1231,689 L 1231,687 L 1230,686 L 1230,685 L 1227,682 L 1227,681 L 1222,676 L 1221,676 L 1218,673 L 1216,673 L 1214,671 L 1212,671 L 1211,670 L 1210,670 L 1209,669 L 1207,669 L 1206,668 L 1204,668 L 1203,667 L 1199,667 L 1198,666 L 1196,666 L 1195,665 L 1187,665 L 1186,664 L 1182,664 L 1181,663 L 1172,663 L 1171,662 Z" fill="black" stroke="none" /><path d="M 910,662 L 909,663 L 906,663 L 905,664 L 904,664 L 903,665 L 903,666 L 902,667 L 902,668 L 901,669 L 901,671 L 900,672 L 900,674 L 899,675 L 899,677 L 898,678 L 898,681 L 897,682 L 897,684 L 896,685 L 896,687 L 895,688 L 895,690 L 894,691 L 894,693 L 893,694 L 893,697 L 892,698 L 892,700 L 891,701 L 891,703 L 890,704 L 890,707 L 889,708 L 889,710 L 888,711 L 888,713 L 887,714 L 887,716 L 886,717 L 886,719 L 885,720 L 885,723 L 884,724 L 884,726 L 883,727 L 883,729 L 882,730 L 882,732 L 881,733 L 881,736 L 880,737 L 880,739 L 879,740 L 879,742 L 878,743 L 878,746 L 877,747 L 877,749 L 876,750 L 876,752 L 875,753 L 875,755 L 874,756 L 874,758 L 873,759 L 873,762 L 872,763 L 872,765 L 871,766 L 871,769 L 873,771 L 875,771 L 876,772 L 881,772 L 882,771 L 883,771 L 885,769 L 885,768 L 886,767 L 886,764 L 887,763 L 887,761 L 888,760 L 888,757 L 889,756 L 889,754 L 890,753 L 890,750 L 891,749 L 891,748 L 893,746 L 898,746 L 899,745 L 905,745 L 906,744 L 917,744 L 918,743 L 926,743 L 927,742 L 935,742 L 936,741 L 940,741 L 943,744 L 943,745 L 944,746 L 944,747 L 945,748 L 945,749 L 946,750 L 946,751 L 947,752 L 947,753 L 948,754 L 948,755 L 949,756 L 949,757 L 950,758 L 950,759 L 951,760 L 951,761 L 953,763 L 954,763 L 955,764 L 963,764 L 964,763 L 965,763 L 966,762 L 966,758 L 965,757 L 965,756 L 964,755 L 964,754 L 962,752 L 962,751 L 961,750 L 961,749 L 960,748 L 960,747 L 959,746 L 959,745 L 958,744 L 958,743 L 957,742 L 957,741 L 956,740 L 956,739 L 955,738 L 955,737 L 954,736 L 954,735 L 953,734 L 953,733 L 952,732 L 952,731 L 951,730 L 951,729 L 950,728 L 950,727 L 948,725 L 948,724 L 947,723 L 947,722 L 946,721 L 946,719 L 944,717 L 944,716 L 943,715 L 943,714 L 942,713 L 942,711 L 940,709 L 940,708 L 939,707 L 939,706 L 938,705 L 938,704 L 937,703 L 937,702 L 936,701 L 936,700 L 935,699 L 935,698 L 934,697 L 934,696 L 933,695 L 933,694 L 932,693 L 932,692 L 931,691 L 931,690 L 930,689 L 930,688 L 929,687 L 929,686 L 928,685 L 928,684 L 927,683 L 927,682 L 926,681 L 926,680 L 925,679 L 925,678 L 924,677 L 924,676 L 922,674 L 922,673 L 921,672 L 921,671 L 920,670 L 920,669 L 919,668 L 919,667 L 918,666 L 918,665 L 916,663 L 915,663 L 914,662 Z" fill="black" stroke="none" /><path d="M 1030,656 L 1029,657 L 1024,657 L 1023,658 L 1023,660 L 1022,661 L 1022,697 L 1021,698 L 1021,733 L 1020,734 L 1020,761 L 1022,763 L 1031,763 L 1033,761 L 1033,754 L 1034,753 L 1034,733 L 1035,732 L 1067,732 L 1068,731 L 1071,731 L 1072,730 L 1075,730 L 1076,729 L 1077,729 L 1078,728 L 1080,728 L 1082,726 L 1083,726 L 1084,725 L 1085,725 L 1092,718 L 1092,717 L 1094,715 L 1094,714 L 1095,713 L 1095,712 L 1096,711 L 1096,709 L 1097,708 L 1097,707 L 1098,706 L 1098,703 L 1099,702 L 1099,686 L 1098,685 L 1098,683 L 1097,682 L 1097,680 L 1096,679 L 1096,677 L 1094,675 L 1094,674 L 1086,666 L 1085,666 L 1083,664 L 1082,664 L 1081,663 L 1080,663 L 1079,662 L 1078,662 L 1077,661 L 1074,661 L 1073,660 L 1071,660 L 1070,659 L 1066,659 L 1065,658 L 1060,658 L 1059,657 L 1047,657 L 1046,656 Z" fill="black" stroke="none" /></svg>